PathFileType	4	(X/Y/Z)	C:/Users/beibeiliu/ov580/test_trc/User2\sequence.35_training_dense_left.trc
DataRate	CameraRate	NumFrames	NumMarkers	Units	OrigDataRate	OrigDataStartFrame	OrigNumFrames
120	120	11	19	mm	120	109	289
Frame#	Time	ThumbCMC			ThumbMCP			ThumbIP			ThumbTip			IndexMCP			IndexPIP			IndexTip			MiddleMCP			MiddlePIP			MiddleTip			RingMCP			RingPIP			RingTip			PinkyMCP			PinkyPIP			PinkyTip			BackHand1			BackHand2			BackHand3	
		X0	Y0	Z0	X1	Y1	Z1	X2	Y2	Z2	X3	Y3	Z3	X4	Y4	Z4	X5	Y5	Z5	X6	Y6	Z6	X7	Y7	Z7	X8	Y8	Z8	X9	Y9	Z9	X10	Y10	Z10	X11	Y11	Z11	X12	Y12	Z12	X13	Y13	Z13	X14	Y14	Z14	X15	Y15	Z15	X16	Y16	Z16	X17	Y17	Z17	X18	Y18	Z18	
108	0.9	-205.313	-39.4202	74.1216	-192.037	-30.5915	45.0677	-170.036	-35.0128	17.9182	-150.715	-56.7702	14.614	-176.823	-88.6637	6.3979	-144.332	-93.6574	-1.42021	-129.684	-69.7442	24.9624	-168.912	-111.194	8.65458	-132.234	-106.931	7.81577	-127.643	-82.9404	37.3891	-162.232	-128.109	24.8596	-133.436	-124.607	20.79	-128.371	-97.7236	47.6414	-162.176	-134.439	48.9279	-130.186	-128.445	38.3769	-120.844	-104.768	54.7675	-203.797	-110.571	71.78	-220.937	-99.5137	97.8863	-216.443	-76.1268	66.978	
109	0.908333	-200.305	-36.6085	74.2834	-185.993	-21.4615	46.8097	-163.284	-32.3014	23.1045	-148.828	-59.6427	17.4162	-178.085	-85.3766	6.09744	-150.763	-91.5248	-3.55027	-129.995	-76.2906	21.1354	-177.513	-105.221	10.2924	-139.285	-108.051	3.27704	-129.04	-91.5174	36.1051	-173.145	-123.25	21.654	-140.854	-122.094	17.6519	-131.325	-104.403	44.1105	-172.424	-134.379	43.4931	-141.647	-127.484	32.5309	-125.646	-111.237	55.1648	-210.4	-105.313	72.5602	-227.469	-92.7814	97.6939	-220.568	-66.8063	68.6672	
110	0.916667	-197.072	-30.1133	80.1497	-178.373	-19.9597	48.778	-157.962	-32.7198	24.933	-149.791	-59.6659	22.0532	-181.733	-77.9533	5.53094	-152.106	-90.3847	-2.41265	-131.102	-79.9007	20.804	-181.002	-100.199	5.25701	-145.482	-108.881	1.81194	-132.075	-90.1659	37.2002	-181.96	-117.412	17.9854	-151.297	-122.931	11.8687	-136.299	-107.945	41.9923	-182.258	-128.598	39.8354	-151.934	-129.803	28.8	-135.363	-115.506	50.0093	-215.936	-100.734	70.1081	-230.725	-88.6381	97.2298	-220.962	-59.2652	68.424	
111	0.925	-193.769	-29.7205	81.1968	-174.745	-18.3376	57.5744	-155.554	-30.4709	29.3283	-146.662	-57.8795	19.4097	-182.741	-72.062	4.71604	-156.444	-87.4338	-5.56767	-133.751	-81.1793	24.1392	-185.504	-93.842	2.39325	-152.908	-107.836	-0.901398	-136.16	-95.5581	35.978	-188.123	-115.324	16.1477	-158.632	-123.735	9.23402	-142.317	-110.377	38.9219	-192.165	-127.623	39.43	-160.861	-132.817	24.6039	-138.196	-119.647	51.1483	-218.828	-94.1636	62.6346	-233.1	-81.3269	94.1915	-220.577	-56.7406	70.8727	
112	0.933333	-190.714	-26.4997	84.7794	-169.957	-19.2113	57.3538	-152.655	-32.5479	31.0939	-146.591	-61.3476	19.5003	-183.537	-66.5639	4.89988	-154.76	-82.7589	-6.57993	-134.86	-81.8044	25.3836	-190.611	-92.2002	5.4312	-156.712	-102.961	-4.16543	-139.616	-97.7615	32.0306	-192.624	-110.553	12.1632	-164.67	-120.628	6.89893	-148.645	-109.586	37.5571	-196.317	-123.245	32.1125	-168.835	-128.537	22.5592	-148.182	-120.024	49.2914	-224.442	-89.8153	65.4743	-235.23	-77.3205	91.1813	-220.684	-51.2973	68.3048	
113	0.941667	-186.338	-27.9528	83.7323	-166.549	-20.5903	62.0007	-148.407	-34.3728	32.0724	-148.27	-65.0992	20.1479	-183.345	-64.1664	6.32504	-156.736	-84.3965	-5.80693	-136.964	-85.6699	24.7404	-190.31	-91.1651	0.779233	-159.491	-102.923	-3.84524	-146.866	-98.6233	38.6568	-196.19	-106.331	9.23444	-169.529	-117.619	6.11938	-155.929	-111.329	42.3774	-203.822	-120.48	32.2856	-171.545	-131.345	22.5432	-155.143	-124.404	51.8515	-226.006	-82.4123	60.3345	-239.669	-75.5175	92.2857	-218.571	-46.5871	71.7577	
114	0.95	-185.618	-32.3234	90.1695	-163.062	-25.5897	61.1921	-147.681	-39.6886	32.6705	-148.823	-66.0768	24.987	-183.109	-61.4199	5.50537	-158.37	-82.6734	-6.12161	-142.3	-91.8267	22.1385	-190.908	-82.1664	2.0609	-160.645	-105.112	-0.177425	-148.475	-101.983	33.2662	-200.448	-105.362	7.26282	-175.101	-117.46	4.62928	-161.153	-112.782	38.6303	-209.039	-115.049	31.4762	-179.7	-127.216	19.3753	-163.507	-127.355	48.4855	-229.218	-80.8872	64.3185	-240.126	-73.6707	89.1798	-219.578	-46.3411	72.7181	
115	0.958333	-183.006	-35.6282	88.3887	-160.372	-27.966	67.3839	-143.594	-42.0113	33.8226	-148.711	-68.5254	23.7536	-182.156	-60.5311	6.80209	-158.257	-84.3812	-6.11206	-141.529	-92.2865	20.9275	-193.995	-84.52	1.37427	-164.979	-108.08	-0.00806923	-153.387	-104.361	33.5592	-203.346	-99.029	10.3304	-174.778	-118.241	6.345	-166.79	-112.334	39.2387	-212.924	-115.086	26.1336	-185.323	-131.079	19.2201	-168.718	-125.106	48.7003	-230.442	-79.2137	61.1873	-240.171	-67.7337	89.8527	-213.669	-42.3292	71.8293	
116	0.966667	-181.606	-36.4836	91.6773	-157.808	-31.6202	63.3399	-141.797	-43.604	37.1695	-149.98	-71.8223	24.6919	-182.489	-63.109	8.32709	-163.785	-85.3224	-6.35998	-144.326	-94.877	23.9596	-196.389	-83.7101	2.8944	-166.103	-106.376	-2.77036	-158.628	-107.451	36.5409	-206.945	-100.68	10.1185	-178.918	-118.291	5.07763	-170.595	-116.806	39.5089	-214.296	-113.013	26.085	-189.787	-131.674	17.3183	-172.426	-131.05	47.1197	-231.242	-74.2189	60.1491	-243.601	-68.311	90.2724	-215.378	-41.7482	74.1962	
117	0.975	-178.446	-38.3237	92.3724	-152.992	-33.3061	64.7981	-140.131	-46.9046	39.1426	-145.77	-72.4272	24.0372	-182.907	-65.8836	6.3621	-160.792	-86.7624	-4.74822	-146.885	-96.4169	26.9644	-197.326	-83.7087	3.21906	-172.259	-109.272	-2.83882	-161.895	-111.376	35.1987	-205.909	-98.8123	9.24354	-184.169	-117.338	2.23559	-173.85	-117.29	39.5299	-220.091	-114.634	28.9127	-192.691	-132.034	17.4209	-174.331	-131.051	46.1593	-231.485	-76.3234	59.3676	-239.328	-64.9623	94.5769	-215.561	-46.4773	72.98	
118	0.983333	-178.645	-42.4409	90.2442	-153.026	-37.6049	65.249	-140.338	-51.0361	38.3668	-140.579	-73.9855	19.4212	-181.979	-63.8635	6.40512	-161.289	-88.5389	-4.49737	-149.662	-98.0727	26.3823	-196.238	-82.2455	3.31071	-171.483	-106.924	-4.12084	-162.112	-110.548	36.1618	-209.58	-102.843	6.6726	-187.515	-121.576	3.03144	-176.001	-118.688	41.3829	-221.994	-113.91	28.3342	-197.699	-132.378	15.2556	-176.873	-131.369	43.3486	-234.755	-76.3169	62.7185	-241.654	-66.1719	94.5271	-212.142	-43.7445	76.9258	
